<svg xmlns="http://www.w3.org/2000/svg" width="1200" height="560" viewBox="0 0 1200 560" fill="none">
  <defs>
    <linearGradient id="bg3" x1="0" y1="0" x2="0" y2="560" gradientUnits="userSpaceOnUse">
      <stop stop-color="#F8FAFC"/>
      <stop offset="1" stop-color="#FFF7ED"/>
    </linearGradient>
  </defs>
  <rect width="1200" height="560" fill="url(#bg3)"/>
  <text x="44" y="56" font-family="Arial, sans-serif" font-size="30" font-weight="700" fill="#0F172A">
    Solución 2: Load Shifting (desplazamiento de carga)
  </text>
  <text x="44" y="88" font-family="Arial, sans-serif" font-size="18" fill="#334155">
    Se mueve consumo desde horas caras a horas valle para reducir OPEX sin afectar salidas.
  </text>

  <rect x="40" y="120" width="760" height="380" rx="18" fill="#FFFFFF" stroke="#CBD5E1" stroke-width="2"/>
  <line x1="110" y1="460" x2="760" y2="460" stroke="#94A3B8" stroke-width="2"/>
  <line x1="110" y1="170" x2="110" y2="460" stroke="#94A3B8" stroke-width="2"/>
  <text x="72" y="172" font-family="Arial, sans-serif" font-size="14" fill="#64748B">kW</text>
  <text x="734" y="484" font-family="Arial, sans-serif" font-size="14" fill="#64748B">Hora</text>

  <rect x="130" y="188" width="170" height="272" fill="#FEE2E2"/>
  <text x="150" y="210" font-family="Arial, sans-serif" font-size="13" fill="#B91C1C">Punta (cara)</text>

  <rect x="470" y="258" width="220" height="202" fill="#DCFCE7"/>
  <text x="500" y="280" font-family="Arial, sans-serif" font-size="13" fill="#166534">Valle (económica)</text>

  <path d="M220 250 C300 250, 360 300, 470 300" stroke="#2563EB" stroke-width="4" fill="none" stroke-linecap="round"/>
  <polygon points="470,300 454,292 454,308" fill="#2563EB"/>
  <text x="286" y="242" font-family="Arial, sans-serif" font-size="13" fill="#1E3A8A">Carga desplazada</text>

  <rect x="840" y="120" width="320" height="380" rx="18" fill="#FFFFFF" stroke="#CBD5E1" stroke-width="2"/>
  <text x="864" y="164" font-family="Arial, sans-serif" font-size="20" font-weight="700" fill="#0F172A">Efecto económico</text>

  <rect x="864" y="188" width="272" height="96" rx="12" fill="#FFF7ED"/>
  <text x="882" y="220" font-family="Arial, sans-serif" font-size="15" fill="#9A3412">Energía en horas caras ↓</text>
  <text x="882" y="246" font-family="Arial, sans-serif" font-size="14" fill="#9A3412">Menor costo variable por kWh</text>

  <rect x="864" y="296" width="272" height="96" rx="12" fill="#EEF2FF"/>
  <text x="882" y="328" font-family="Arial, sans-serif" font-size="15" fill="#1E3A8A">Planificación por salida</text>
  <text x="882" y="354" font-family="Arial, sans-serif" font-size="14" fill="#1E3A8A">SOC objetivo al inicio de ruta</text>

  <rect x="864" y="404" width="272" height="76" rx="12" fill="#ECFDF5"/>
  <text x="882" y="434" font-family="Arial, sans-serif" font-size="15" fill="#14532D">OPEX total optimizado</text>
  <text x="882" y="458" font-family="Arial, sans-serif" font-size="14" fill="#14532D">misma operación, menor coste</text>
</svg>
